<?xml version="1.0" encoding="UTF-8" standalone="no"?>
<!-- Created with Inkscape (http://www.inkscape.org/) -->

<svg
   xmlns:dc="http://purl.org/dc/elements/1.1/"
   xmlns:cc="http://creativecommons.org/ns#"
   xmlns:rdf="http://www.w3.org/1999/02/22-rdf-syntax-ns#"
   xmlns:svg="http://www.w3.org/2000/svg"
   xmlns="http://www.w3.org/2000/svg"
   xmlns:sodipodi="http://sodipodi.sourceforge.net/DTD/sodipodi-0.dtd"
   xmlns:inkscape="http://www.inkscape.org/namespaces/inkscape"
   id="svg3336"
   version="1.1"
   inkscape:version="0.91 r13725"
   width="310"
   height="253.75"
   viewBox="0 0 310 253.75"
   sodipodi:docname="ahorcadobase.svg">
  <metadata
     id="metadata3342">
    <rdf:RDF>
      <cc:Work
         rdf:about="">
        <dc:format>image/svg+xml</dc:format>
        <dc:type
           rdf:resource="http://purl.org/dc/dcmitype/StillImage" />
        <dc:title></dc:title>
      </cc:Work>
    </rdf:RDF>
  </metadata>
  <defs
     id="defs3340" />
  <sodipodi:namedview
     pagecolor="#ffffff"
     bordercolor="#666666"
     borderopacity="1"
     objecttolerance="10"
     gridtolerance="10"
     guidetolerance="10"
     inkscape:pageopacity="0"
     inkscape:pageshadow="2"
     inkscape:window-width="1280"
     inkscape:window-height="715"
     id="namedview3338"
     showgrid="false"
     inkscape:zoom="0.93793103"
     inkscape:cx="155"
     inkscape:cy="126.875"
     inkscape:window-x="-8"
     inkscape:window-y="22"
     inkscape:window-maximized="1"
     inkscape:current-layer="svg3336" />
  <path
     style="fill:#000000"
     d="m 10.211573,250.60025 c -0.8635,-1.50387 -1.47706,-5.47971 -1.36347,-8.8352 0.11357,-3.35548 0.50253,-4.66816 0.86425,-2.91709 0.67666,3.27548 5.36764,6.60074 7.07144,5.01268 0.52675,-0.49098 0.95775,-2.05893 0.95775,-3.48436 0,-1.4254 0.75551,-2.59165 1.67892,-2.59165 0.92341,0 1.28609,-0.9542 0.80592,-2.12045 -0.48014,-1.16624 -0.16592,-2.12045 0.69828,-2.12045 0.88756,0 1.14709,-1.24566 0.59644,-2.86277 -0.66923,-1.96528 -0.34464,-2.74086 1.03528,-2.47386 1.10558,0.21391 2.01012,-0.56529 2.01012,-1.73154 0,-1.16623 0.94453,-3.04624 2.09896,-4.17778 1.62313,-1.59095 1.67018,-2.19056 0.20756,-2.64497 -1.46993,-0.45671 -1.44413,-0.84531 0.11576,-1.74386 1.5968,-0.91986 1.41716,-1.76383 -0.87881,-4.12849 l -2.88593,-2.97231 -2.08764,3.23942 c -1.56755,2.43232 -1.80969,2.535 -0.97188,0.41212 0.6137,-1.555 1.07489,-5.05373 1.02491,-7.77498 -0.05,-2.72124 0.22756,-3.83449 0.61683,-2.47386 0.38923,1.36062 1.38044,2.47386 2.20266,2.47386 0.82224,0 1.10716,0.58485 0.6332,1.29965 -1.1782,1.77688 3.14589,5.58126 7.50196,6.60029 5.46677,1.27889 12.13906,-2.29682 12.13906,-6.50535 0,-1.93327 0.6825,-3.99215 1.51666,-4.57526 0.9512,-0.66494 0.66847,-1.57921 -0.75833,-2.45222 -1.25125,-0.76559 -1.51494,-1.40174 -0.58598,-1.41363 0.95552,-0.0126 1.689,-2.47722 1.689,-5.67618 0,-3.19896 -0.73348,-5.66392 -1.689,-5.67618 -0.92896,-0.0113 -0.66527,-0.69646 0.58598,-1.52124 1.70948,-1.12684 1.80439,-1.67764 0.38177,-2.2158 -1.17078,-0.4429 -1.54209,-2.02014 -0.97308,-4.13328 0.72047,-2.67556 0.30849,-3.44131 -1.89843,-3.5287 -1.59667,-0.0632 -1.99667,-0.42071 -0.92275,-0.82461 2.22348,-0.83624 2.57459,-4.71832 0.42677,-4.71832 -0.80799,0 -1.05316,-1.01017 -0.54486,-2.24484 0.70854,-1.721 0.099,-2.13335 -2.61212,-1.76705 -2.59235,0.35027 -3.90152,1.79794 -4.90446,5.42333 -0.75247,2.72002 -1.88691,5.26457 -2.52093,5.65453 -0.63403,0.38995 -2.58252,4.20776 -4.32996,8.484 -1.74743,4.27624 -3.21272,6.92928 -3.25617,5.89564 -0.0436,-1.03365 1.54693,-5.80466 3.5342,-10.60224 5.25421,-12.68441 5.53948,-13.67063 3.95442,-13.67063 -1.83683,0 -15.15096,18.42457 -15.15096,20.96643 0,3.07266 5.6593,9.08774 6.56858,6.98154 0.47787,-1.10694 0.82119,-0.84683 0.89498,0.6781 0.0657,1.36061 -0.33839,2.47385 -0.89832,2.47385 -0.55995,0 -2.37334,-1.11324 -4.02977,-2.47385 -2.91048,-2.39074 -2.98221,-2.36428 -2.13458,0.7876 0.69542,2.58578 0.46287,2.94102 -1.12239,1.71474 -3.58961,-2.77672 -1.27805,-10.9686 6.19972,-21.97108 9.83729,-14.47416 9.75693,-15.52507 -1.55376,-20.31796 -5.07802,-2.15181 -10.06516,-4.85677 -11.08251,-6.01101 -1.01738,-1.15423 -2.30304,-5.69319 -2.85702,-10.08653 -0.87796,-6.96269 -0.47075,-9.01 3.17267,-15.95102 4.58228,-8.72961 13.25958,-15.11444 22.81105,-16.78458 3.56043,-0.62258 5.26603,-1.70063 5.269,-3.33037 0.003,-1.32538 -0.78271,-12.460476 -1.74475,-24.744652 -1.03698,-13.241319 -1.19314,-22.850469 -0.38357,-23.601269 0.75109,-0.696528 1.07488,-6.231146 0.71955,-12.299149 -0.52267,-8.925275 -0.84666,-10.087629 -1.6962,-6.085022 l -1.05014,4.947715 -0.19966,-5.301123 c -0.10979,-2.915618 -0.71153,-5.302996 -1.33714,-5.305285 -0.62563,-0.0022 -1.19424,-2.352409 -1.26358,-5.22249 -0.0693,-2.870083 -0.92247,-5.465763 -1.89582,-5.768175 -2.15724,-0.670231 -2.37308,-4.555137 -0.25309,-4.555137 0.83417,0 1.51666,-0.636134 1.51666,-1.413633 0,-0.787151 -4.07959,-1.413633 -9.20545,-1.413633 -8.66223,0 -9.17686,-0.186488 -8.72081,-3.160315 0.4156,-2.709893 1.56547,-3.229806 8.06796,-3.647871 4.17083,-0.268154 8.23168,-1.072483 9.02414,-1.787397 2.72683,-2.4600127 9.68588,-1.395546 12.2961,1.880829 2.44463,3.068509 2.50827,3.076032 1.80451,0.21334 -0.74902,-3.046842 0.26841,-3.251557 10.24179,-2.060737 2.64007,0.315223 2.54176,0.508909 -0.75832,1.493988 -2.79291,0.833684 -1.1949,1.174631 6.06664,1.294369 10.63134,0.175305 18.90802,2.885448 8.93247,2.924882 -13.2179,0.05224 -18.87729,1.57985 -20.79233,5.612331 -1.01048,2.127755 -1.67804,5.080004 -1.48348,6.560553 0.19455,1.480549 -0.13984,11.915863 -0.7432,23.189586 -1.06234,19.850864 -1.55548,50.436905 -0.93914,58.245955 0.22157,2.80698 1.45047,4.19439 4.63033,5.22759 7.47772,2.42968 4.7013,2.81832 -3.2349,0.45283 -6.9931,-2.08439 -8.18304,-2.07243 -15.77608,0.15846 -18.15316,5.33357 -27.6849506,25.34911 -18.37714,38.58963 2.74629,3.90668 12.96853,8.73597 20.13851,9.5141 2.4523,0.26612 5.23937,0.93357 6.19354,1.48322 2.69381,1.55176 1.95456,-0.92907 -1.39357,-4.67659 -2.67291,-2.99178 -3.48928,-3.19253 -6.97051,-1.71412 -2.16866,0.92098 -4.21905,1.41724 -4.55642,1.1028 -0.87763,-0.81803 15.67243,-7.9823 23.7553,-10.28332 8.20136,-2.33474 7.5833,-2.28911 7.5833,-0.55989 0,0.7775 -1.44095,1.41364 -3.20212,1.41364 -2.89318,0 -3.09136,0.51145 -2.05425,5.30113 1.4966,6.91163 1.13294,11.60054 -1.09361,14.10112 -1.18517,1.33103 -1.27265,2.34188 -0.25707,2.97022 2.98032,1.84385 17.22368,21.92258 17.22368,24.28003 0,2.49502 -4.53472,7.08833 -6.9444,7.03411 -0.76848,-0.0172 0.309,-1.26198 2.39441,-2.76602 l 3.79165,-2.7346 -3.4652,-6.06917 c -1.90588,-3.33805 -5.52537,-8.29564 -8.04332,-11.01689 l -4.57809,-4.94772 3.07623,5.88236 c 3.54608,6.78075 6.5314,17.80874 4.50489,16.64138 -0.74405,-0.42861 -1.3528,-2.03216 -1.3528,-3.56343 0,-3.31129 -8.93982,-20.2876 -10.10947,-19.19741 -0.446,0.4157 -0.24771,1.59332 0.44062,2.61691 0.68832,1.0236 1.05501,2.97432 0.81486,4.33495 -0.24015,1.36063 0.11818,2.47384 0.79617,2.47382 0.67806,0 1.15591,3.83323 1.06189,8.51832 -0.094,4.68508 0.4907,8.89948 1.29941,9.36533 0.86212,0.49662 0.61914,1.35872 -0.58737,2.08395 -1.71042,1.02815 -1.71627,1.44233 -0.0347,2.45384 1.63122,0.98123 1.55778,1.38329 -0.37917,2.07607 -2.63137,0.94117 -3.338,5.18881 -0.8632,5.18881 2.13426,0 7.54342,-8.57624 7.57855,-12.01587 0.024,-2.34367 0.28039,-2.46458 1.49912,-0.70682 0.80862,1.16625 1.4702,3.71079 1.4702,5.65453 0,2.5719 -0.3622,3.00099 -1.33042,1.57608 -1.05781,-1.55688 -1.69996,-1.3144 -3.13421,1.18346 -2.1387,3.72475 -0.63594,17.03132 1.92342,17.03132 1.16558,0 1.13316,0.50755 -0.10615,1.66273 -1.19872,1.11729 -1.28965,2.21781 -0.27715,3.3549 1.8047,2.02684 0.24335,6.63435 -1.84124,5.43352 -0.80362,-0.46293 -1.07115,-1.78897 -0.59449,-2.94673 0.47665,-1.15776 0.38804,-2.82683 -0.19694,-3.70904 -0.58497,-0.88221 -1.1437,-2.89224 -1.24159,-4.46674 -0.5711,-9.18206 -0.87962,-10.63771 -2.25474,-10.63771 -1.6452,0 -2.16268,25.05868 -0.59606,28.86386 1.17064,2.84342 6.6627,2.93872 6.6627,0.11564 0,-1.16625 -0.79625,-2.12045 -1.76944,-2.12045 -2.73721,0 -0.55363,-1.43122 3.2159,-2.10786 2.83685,-0.5092 3.07642,-0.27182 1.50575,1.49213 -2.89403,3.25022 -0.46191,4.0998 3.97663,1.3891 4.05078,-2.47387 4.05756,-2.53019 1.45205,-12.08243 -0.62957,-2.30814 -0.1459,-1.88404 1.39423,1.22251 2.70992,5.46612 3.02712,9.53435 0.84151,10.79336 -0.83416,0.48052 -1.51666,2.38102 -1.51666,4.22336 0,1.84232 -1.15706,4.42814 -2.57123,5.74626 -2.41723,2.25303 -2.76135,2.17438 -5.74448,-1.31265 -1.74526,-2.0401 -4.32892,-3.70927 -5.74148,-3.70927 -3.50286,0 -4.91929,-5.55177 -4.81025,-18.85391 l 0.0908,-11.07894 -5.39916,0.84691 c -2.9695,0.46581 -6.59349,0.87889 -8.05328,0.91797 -2.73783,0.0733 -3.84472,2.72258 -1.13757,2.72258 0.83417,0 1.51667,0.61618 1.51667,1.36927 0,0.75309 -1.02375,1.00311 -2.275,0.55559 -1.46119,-0.52264 -2.27499,0.0288 -2.27499,1.54142 0,1.2953 0.6825,1.96196 1.51666,1.48144 1.7884,-1.03021 1.74072,1.43612 -0.123,6.36135 -1.32092,3.49081 -1.3308,3.48579 -0.80598,-0.40944 0.33298,-2.47141 -0.10219,-3.73387 -1.16567,-3.38194 -0.93335,0.30887 -1.6022,1.60636 -1.48635,2.88331 0.11586,1.27693 -0.46904,2.3217 -1.29976,2.3217 -0.83073,0 -1.13924,0.90155 -0.68558,2.00346 0.45365,1.1019 -0.19909,2.36969 -1.45052,2.81728 -1.25145,0.44759 -1.89837,1.38236 -1.43761,2.07726 0.46077,0.69491 -0.17095,2.04373 -1.40383,2.99742 -1.23287,0.95371 -1.8401,2.33949 -1.34939,3.07954 0.50402,0.76012 2.31142,0.25196 4.15412,-1.16793 3.15302,-2.42957 3.15015,-2.40056 -0.0862,0.86895 -2.97577,3.0062 -3.79886,3.19102 -7.40012,1.66164 -2.22857,-0.94643 -4.36731,-1.42684 -4.75276,-1.06757 -1.42986,1.33273 1.3234,6.36069 3.81822,6.97279 2.41725,0.59304 2.41611,0.6442 -0.0178,0.79767 -1.43043,0.0902 -3.30731,-1.06647 -4.17082,-2.57036 z m 52.77466,-5.54044 c 0.4378,-2.86944 0.0435,-3.16632 -3.03333,-2.28381 -4.57447,1.31211 -4.53433,1.26386 -3.38138,4.0643 1.3937,3.38526 5.81377,2.1584 6.41471,-1.78049 z m -17.18647,-76.54319 c -0.51554,-0.77749 -1.23832,-1.41364 -1.60618,-1.41364 -0.36785,0 -0.66881,0.63615 -0.66881,1.41364 0,0.7775 0.72278,1.41363 1.60617,1.41363 0.8834,0 1.18436,-0.63613 0.66882,-1.41363 z m -5.30831,-4.19654 c 0,-0.75308 -1.02375,-1.0031 -2.275,-0.55557 -1.25123,0.44754 -2.27498,1.0637 -2.27498,1.36928 0,0.30554 1.02375,0.55556 2.27498,0.55556 1.25125,0 2.275,-0.61617 2.275,-1.36927 z m 5.18426,-6.55695 c 2.60331,-0.93113 3.35642,-8.31903 0.98718,-9.68382 -2.33144,-1.34303 -3.54095,2.02479 -1.5359,4.27662 1.02485,1.15097 1.37817,2.54491 0.78518,3.09763 -0.59301,0.55272 -2.35966,-0.57589 -3.9259,-2.50803 -2.25036,-2.77606 -3.23916,-3.14931 -4.71376,-1.77932 -1.47644,1.37167 -1.28612,2.33091 0.91151,4.59431 3.00132,3.09112 3.82943,3.31248 7.49169,2.00261 z m -5.61722,-66.66824 c -0.34607,-2.124191 -0.62225,-0.04539 -0.61373,4.61963 0.009,4.66499 0.29165,6.40296 0.62919,3.86217 0.33755,-2.54079 0.3306,-6.357596 -0.0155,-8.4818 z m 0.67742,-50.158646 c -0.28264,-4.470612 -1.10388,-8.128388 -1.82499,-8.128388 -1.14026,0 -0.95746,35.250989 0.21259,40.995352 0.7623,3.74252 2.145,-24.442375 1.6124,-32.866964 z m -0.24446,-13.934163 c 0,-1.615234 -4.11281,-1.651719 -5.17758,-0.04593 -0.44362,0.669054 -0.41718,1.579425 0.0588,2.023048 1.18349,1.103166 5.11874,-0.416805 5.11874,-1.977119 z m 0,-4.877918 c 0,-1.657104 -2.99348,-1.66663 -4.4648,-0.01421 -1.45049,1.628993 -1.20449,1.854564 1.34479,1.233194 1.716,-0.41826 3.12001,-0.966804 3.12001,-1.218986 z m 5.9705,-10.874208 c -0.0899,-4.297286 -0.18815,-4.380236 -1.5196,-1.283079 -0.7829,1.821175 -1.04061,3.888612 -0.57268,4.594305 1.55281,2.341818 2.1895,1.334205 2.09228,-3.311226 z m -4.45384,1.940131 c 0,-2.070698 -4.32067,-4.73003 -6.39481,-3.935957 -1.22911,0.470552 -0.69508,1.100221 1.4486,1.707993 1.8675,0.529472 3.02157,1.526485 2.56466,2.215589 -0.45694,0.689104 -0.10803,1.252916 0.77537,1.252916 0.8834,0 1.60618,-0.558244 1.60618,-1.240541 z m -15.80089,-1.586723 c 3.6855,0 6.70093,-0.667881 6.70093,-1.484179 0,-2.347654 -17.05312,-1.05635 -17.90791,1.356032 -0.49552,1.398493 0.0708,1.714495 1.90007,1.060225 1.43328,-0.512644 5.62138,-0.932078 9.30691,-0.932078 z m -0.83592,228.301727 c 0,-0.77751 0.66157,-2.36784 1.4702,-3.53409 0.80862,-1.16625 1.4702,-1.48431 1.4702,-0.70682 0,0.7775 -0.66158,2.36784 -1.4702,3.53408 -0.80863,1.16625 -1.4702,1.48432 -1.4702,0.70683 z m -15.10558,-5.65454 c 0,-0.7775 0.97538,-3.00397 2.1675,-4.94772 1.19212,-1.94374 2.1675,-2.89795 2.1675,-2.12044 0,0.77749 -0.97538,3.00396 -2.1675,4.94771 -1.19213,1.94375 -2.1675,2.89795 -2.1675,2.12045 z m 51.57873,-12.6049 c -0.0657,-1.4902 0.29259,-2.32513 0.79657,-1.85539 0.50398,0.46973 0.55784,1.68898 0.11963,2.70947 -0.48415,1.12769 -0.84354,0.79273 -0.9163,-0.85408 z m -1.51666,-5.65453 c -0.0657,-1.49019 0.29259,-2.32513 0.79657,-1.85539 0.50398,0.46973 0.55784,1.68899 0.11963,2.70946 -0.48415,1.1277 -0.84354,0.79275 -0.9163,-0.85407 z m -1.51666,-5.65454 c -0.0657,-1.49019 0.29259,-2.32513 0.79657,-1.85539 0.50398,0.46974 0.55784,1.68899 0.11963,2.70947 -0.48415,1.1277 -0.84355,0.79275 -0.9163,-0.85408 z m 1.8299,-58.53909 c 2.26483,-2.5868 4.43235,-6.08555 4.81673,-7.77499 0.38435,-1.68946 0.98747,-4.344 1.34026,-5.89899 0.45104,-1.98798 0.69368,-1.6524 0.81739,1.13041 0.21351,4.80304 -2.84097,10.61661 -7.57787,14.4229 -2.91523,2.34246 -2.81234,2.02206 0.60349,-1.87933 z m -42.92296,-6.60582 c -0.17921,-0.7775 -0.18813,-2.61608 -0.0199,-4.08572 0.2189,-1.91145 -0.37898,-2.42708 -2.10036,-1.8114 -1.52414,0.54515 -2.4063,0.0997 -2.4063,-1.21542 0,-1.14184 1.365,-2.07608 3.03332,-2.07608 2.02221,0 3.03332,-0.94241 3.03332,-2.82726 0,-1.55499 0.6186,-2.82727 1.37468,-2.82727 0.75606,0 0.99143,1.36601 0.52301,3.03558 -0.7529,2.68343 -0.38923,2.92737 3.1349,2.10296 3.11079,-0.72772 3.8007,-0.4811 3.14041,1.12267 -0.46538,1.1304 -2.29611,2.25151 -4.06825,2.49134 -1.92626,0.2607 -3.64373,1.85736 -4.27056,3.97014 -0.57667,1.94376 -1.19512,2.89796 -1.37431,2.12046 z m 30.06417,-7.23983 c -1.93511,-1.80366 -3.01918,-1.9094 -5.72707,-0.55862 -1.83709,0.91639 -3.68142,1.3481 -4.0985,0.95935 -0.41709,-0.38875 0.66512,-1.41687 2.40488,-2.28471 3.72104,-1.85616 4.0715,-4.67056 0.88823,-7.13298 -2.47993,-1.91833 -3.02855,-4.24089 -1.00178,-4.24089 0.70026,0 2.05951,1.60852 3.02054,3.57446 1.6869,3.45083 1.87895,3.49412 5.55177,1.25106 4.43625,-2.70928 5.54435,0.0384 1.20753,2.99405 -2.21287,1.50817 -2.29306,2.11118 -0.54222,4.0775 2.73443,3.07097 1.3328,4.1907 -1.70338,1.36078 z m 17.09553,-5.72067 c -0.0657,-0.90827 -0.51253,-2.81667 -0.99261,-4.24089 -0.82968,-2.46145 -0.78689,-2.46452 0.8657,-0.0623 0.95616,1.3899 1.40285,3.29831 0.99257,4.24089 -0.53839,1.23692 -0.77925,1.25427 -0.86566,0.0623 z m -6.55115,-13.34786 c -2.28601,-3.02411 -3.85637,-5.49839 -3.48966,-5.49839 1.08426,0 8.88166,9.92534 8.23673,10.48458 -0.32486,0.28172 -2.46104,-1.96207 -4.74707,-4.98619 z M 59.052853,4.977553 c 1.45007,-0.353823 4.18007,-0.36666 6.06665,-0.02853 1.88659,0.338132 0.70019,0.627622 -2.63647,0.643313 -3.33665,0.01568 -4.88024,-0.260963 -3.43018,-0.614785 z"
     id="path3348"
     inkscape:connector-curvature="0" />
</svg>
